<?xml version="1.0" encoding="UTF-8"?>
<!DOCTYPE svg PUBLIC "-//W3C//DTD SVG 1.1//EN" "http://www.w3.org/Graphics/SVG/1.1/DTD/svg11.dtd">
<!-- Creator: CorelDRAW X5 -->
<svg xmlns="http://www.w3.org/2000/svg" xml:space="preserve" width="46.024mm" height="30.698mm" style="shape-rendering:geometricPrecision; text-rendering:geometricPrecision; image-rendering:optimizeQuality; fill-rule:evenodd; clip-rule:evenodd"
viewBox="0 0 46.024 30.698"
 xmlns:xlink="http://www.w3.org/1999/xlink">
 <defs>
  <style type="text/css">
   <![CDATA[
    .fil0 {fill:#2B2A29}
    .fil1 {fill:#FEFEFE}
   ]]>
  </style>
 </defs>
 <g id="Слой_x0020_1">
  <metadata id="CorelCorpID_0Corel-Layer"/>
  <rect class="fil0" x="-7.47657e-005" y="0.00385423" width="46.0239" height="30.698"/>
  <path class="fil1" d="M32.5156 20.6066l0 -3.1257 -3.1257 0 0 -3.0198 3.1257 0 0 -3.1257 3.0198 0 0 3.1257 3.1257 0 0 3.0198 -3.1257 0 0 3.1257 -3.0198 0zm-25.1546 -11.4711l0.3355 2.5783 2.3134 -0.4062 0 12.0431 4.0263 0 0 -15.9946 -2.6275 0 -4.0477 1.7794zm19.1648 14.2287l-8.1322 0 -1.9189 0 0.1239 -1.8906c0.0552,-0.8421 0.2555,-1.5866 0.5616,-2.2568 0.3028,-0.6629 0.6966,-1.2366 1.1472,-1.7498 0.6893,-0.785 1.5109,-1.4058 2.3339,-2.0276 1.2119,-0.9156 2.4285,-1.8349 2.5,-3.0693 0.02,-0.3454 -0.0596,-0.6723 -0.2171,-0.9546 -0.1524,-0.2733 -0.3772,-0.5066 -0.655,-0.6768 -1.4655,-0.8982 -3.5031,0.0722 -4.748,0.7768l-0.7636 -2.4313c4.3672,-3.7512 10.2839,-1.9783 9.9504,3.7756 -0.1668,2.8798 -2.0176,4.0015 -3.8845,5.412 -0.6631,0.501 -1.3252,1.0012 -1.7947,1.5345l5.497 0 0 3.5579z"/>
 </g>
</svg>
