<?xml version="1.0" encoding="UTF-8"?>
<!DOCTYPE svg PUBLIC "-//W3C//DTD SVG 1.1//EN" "http://www.w3.org/Graphics/SVG/1.1/DTD/svg11.dtd">
<svg xmlns="http://www.w3.org/2000/svg" version="1.1" width="120px" height="146px" style="shape-rendering:geometricPrecision; text-rendering:geometricPrecision; image-rendering:optimizeQuality; fill-rule:evenodd; clip-rule:evenodd" xmlns:xlink="http://www.w3.org/1999/xlink">
<g><path style="opacity:0.996" fill="#060606" d="M -0.5,-0.5 C 39.5,-0.5 79.5,-0.5 119.5,-0.5C 119.5,48.1667 119.5,96.8333 119.5,145.5C 79.5,145.5 39.5,145.5 -0.5,145.5C -0.5,96.8333 -0.5,48.1667 -0.5,-0.5 Z"/></g>
<g><path style="opacity:0.861" fill="#855a11" d="M 1.5,1.5 C 40.1667,1.5 78.8333,1.5 117.5,1.5C 117.5,40.1667 117.5,78.8333 117.5,117.5C 78.8333,117.5 40.1667,117.5 1.5,117.5C 1.5,78.8333 1.5,40.1667 1.5,1.5 Z"/></g>
<g><path style="opacity:1" fill="#fca513" d="M 6.5,2.5 C 8.48539,6.45559 10.9854,10.1223 14,13.5C 15.7799,11.7071 17.6132,10.0404 19.5,8.5C 18.0777,7.45282 16.5777,7.45282 15,8.5C 13.274,7.35214 13.4407,6.18548 15.5,5C 14.3508,3.2559 13.0175,3.08923 11.5,4.5C 10.7025,4.04311 10.3691,3.37644 10.5,2.5C 12.5,2.5 14.5,2.5 16.5,2.5C 20.0765,7.70064 23.7432,7.70064 27.5,2.5C 30.1667,2.5 32.8333,2.5 35.5,2.5C 34.5442,3.65944 33.5442,4.8261 32.5,6C 34.2514,8.82811 36.2514,11.4948 38.5,14C 36.8659,14.4935 35.1992,14.6602 33.5,14.5C 34.935,11.0529 33.7683,8.71961 30,7.5C 25.6206,8.93907 24.7873,11.2724 27.5,14.5C 27.5,14.8333 27.5,15.1667 27.5,15.5C 25.5938,21.4106 21.5938,24.744 15.5,25.5C 14.0047,25.5852 13.0047,24.9185 12.5,23.5C 13.2739,22.2888 14.1072,22.2888 15,23.5C 16.1882,22.4366 16.6882,21.1033 16.5,19.5C 11.4439,19.5383 9.44386,21.8716 10.5,26.5C 10.5,27.5 10.5,28.5 10.5,29.5C 5.24195,30.7503 4.57528,29.5836 8.5,26C 8,25.5 7.5,25 7,24.5C 5.38533,25.3862 3.88533,26.3862 2.5,27.5C 2.5,23.1667 2.5,18.8333 2.5,14.5C 4.14537,15.4787 5.4787,16.812 6.5,18.5C 8.95724,16.9991 8.95724,15.3324 6.5,13.5C 9.43985,8.71303 8.10652,6.04636 2.5,5.5C 2.5,4.5 2.5,3.5 2.5,2.5C 3.83333,2.5 5.16667,2.5 6.5,2.5 Z"/></g>
<g><path style="opacity:1" fill="#fdbc44" d="M 6.5,2.5 C 7.83333,2.5 9.16667,2.5 10.5,2.5C 10.3691,3.37644 10.7025,4.04311 11.5,4.5C 13.0175,3.08923 14.3508,3.2559 15.5,5C 13.4407,6.18548 13.274,7.35214 15,8.5C 16.5777,7.45282 18.0777,7.45282 19.5,8.5C 17.6132,10.0404 15.7799,11.7071 14,13.5C 10.9854,10.1223 8.48539,6.45559 6.5,2.5 Z"/></g>
<g><path style="opacity:0.999" fill="#febc44" d="M 16.5,2.5 C 20.1667,2.5 23.8333,2.5 27.5,2.5C 23.7432,7.70064 20.0765,7.70064 16.5,2.5 Z"/></g>
<g><path style="opacity:1" fill="#fec052" d="M 35.5,2.5 C 36.5,2.5 37.5,2.5 38.5,2.5C 38.0962,3.75644 37.4295,4.9231 36.5,6C 36.8333,6.5 37.1667,7 37.5,7.5C 41.428,6.15654 42.0947,6.98987 39.5,10C 39.8333,10.5 40.1667,11 40.5,11.5C 41.5,10.8333 42.5,10.1667 43.5,9.5C 43.8333,10 44.1667,10.5 44.5,11C 43.4451,12.5072 42.4451,14.0072 41.5,15.5C 36.8333,15.5 32.1667,15.5 27.5,15.5C 27.5,15.1667 27.5,14.8333 27.5,14.5C 29.5,14.5 31.5,14.5 33.5,14.5C 35.1992,14.6602 36.8659,14.4935 38.5,14C 36.2514,11.4948 34.2514,8.82811 32.5,6C 33.5442,4.8261 34.5442,3.65944 35.5,2.5 Z"/></g>
<g><path style="opacity:1" fill="#f6ad2f" d="M 93.5,2.5 C 101.167,2.5 108.833,2.5 116.5,2.5C 116.5,9.16667 116.5,15.8333 116.5,22.5C 114.197,20.022 112.031,17.3553 110,14.5C 109.53,13.4232 109.697,12.4232 110.5,11.5C 111.79,10.9423 112.623,9.94227 113,8.5C 113.333,9.5 113.667,10.5 114,11.5C 114.814,9.09821 114.647,6.76488 113.5,4.5C 112.667,5.5 111.833,6.5 111,7.5C 108.756,3.27746 107.59,3.61079 107.5,8.5C 106.833,8.5 106.167,8.5 105.5,8.5C 105.33,7.17793 105.663,6.01127 106.5,5C 105.167,4.33333 103.833,4.33333 102.5,5C 103.423,7.04083 103.756,9.2075 103.5,11.5C 102.143,12.6854 100.643,13.6854 99,14.5C 95.4718,12.6347 92.9718,9.8014 91.5,6C 91.9783,4.69736 92.645,3.53069 93.5,2.5 Z"/></g>
<g><path style="opacity:1" fill="#66450d" d="M 105.5,8.5 C 105.715,10.1788 105.048,11.1788 103.5,11.5C 103.756,9.2075 103.423,7.04083 102.5,5C 103.833,4.33333 105.167,4.33333 106.5,5C 105.663,6.01127 105.33,7.17793 105.5,8.5 Z"/></g>
<g><path style="opacity:1" fill="#fdbb41" d="M 2.5,5.5 C 8.10652,6.04636 9.43985,8.71303 6.5,13.5C 8.95724,15.3324 8.95724,16.9991 6.5,18.5C 5.4787,16.812 4.14537,15.4787 2.5,14.5C 2.5,11.5 2.5,8.5 2.5,5.5 Z"/></g>
<g><path style="opacity:1" fill="#fdbb43" d="M 33.5,14.5 C 31.5,14.5 29.5,14.5 27.5,14.5C 24.7873,11.2724 25.6206,8.93907 30,7.5C 33.7683,8.71961 34.935,11.0529 33.5,14.5 Z"/></g>
<g><path style="opacity:1" fill="#523608" d="M 110.5,11.5 C 110.316,9.07516 109.649,9.07516 108.5,11.5C 107.614,10.675 107.281,9.67504 107.5,8.5C 107.59,3.61079 108.756,3.27746 111,7.5C 111.833,6.5 112.667,5.5 113.5,4.5C 114.647,6.76488 114.814,9.09821 114,11.5C 113.667,10.5 113.333,9.5 113,8.5C 112.623,9.94227 111.79,10.9423 110.5,11.5 Z"/></g>
<g><path style="opacity:1" fill="#fefefd" d="M 27.5,15.5 C 32.1667,15.5 36.8333,15.5 41.5,15.5C 41.5,44.1667 41.5,72.8333 41.5,101.5C 35.5,101.5 29.5,101.5 23.5,101.5C 23.8306,79.9935 23.4973,58.6601 22.5,37.5C 18.5,37.5 14.5,37.5 10.5,37.5C 10.5,34.8333 10.5,32.1667 10.5,29.5C 10.5,28.5 10.5,27.5 10.5,26.5C 12.4147,26.7845 14.0813,26.4511 15.5,25.5C 21.5938,24.744 25.5938,21.4106 27.5,15.5 Z"/></g>
<g><path style="opacity:1" fill="#fffdfc" d="M 77.5,15.5 C 81.8333,15.5 86.1667,15.5 90.5,15.5C 100.321,18.9975 105.654,25.9975 106.5,36.5C 106.5,38.5 106.5,40.5 106.5,42.5C 105.446,50.6704 102.446,58.0037 97.5,64.5C 95.5293,66.8082 93.5293,69.1415 91.5,71.5C 90.0937,71.9731 89.427,72.9731 89.5,74.5C 86.0012,77.1662 83.0012,80.3329 80.5,84C 85.1548,84.4992 89.8215,84.6658 94.5,84.5C 97.5,84.5 100.5,84.5 103.5,84.5C 105.308,85.9179 105.975,87.9179 105.5,90.5C 105.5,94.1667 105.5,97.8333 105.5,101.5C 90.5,101.5 75.5,101.5 60.5,101.5C 60.5,95.5 60.5,89.5 60.5,83.5C 62.14,80.8508 63.8067,78.1841 65.5,75.5C 73.1455,66.8795 79.8122,57.5461 85.5,47.5C 86.9581,43.7266 87.4581,39.7266 87,35.5C 84.8172,32.8299 82.3172,32.1632 79.5,33.5C 78.0937,33.9731 77.427,34.9731 77.5,36.5C 76.5269,38.9479 76.1936,41.6146 76.5,44.5C 70.8333,44.5 65.1667,44.5 59.5,44.5C 59.5,43.5 59.5,42.5 59.5,41.5C 59.423,37.7852 59.7564,34.1185 60.5,30.5C 63.1328,22.0231 68.7995,17.0231 77.5,15.5 Z"/></g>
<g><path style="opacity:1" fill="#fdbe4a" d="M 15.5,25.5 C 14.0813,26.4511 12.4147,26.7845 10.5,26.5C 9.44386,21.8716 11.4439,19.5383 16.5,19.5C 16.6882,21.1033 16.1882,22.4366 15,23.5C 14.1072,22.2888 13.2739,22.2888 12.5,23.5C 13.0047,24.9185 14.0047,25.5852 15.5,25.5 Z"/></g>
<g><path style="opacity:1" fill="#fdbb43" d="M 10.5,29.5 C 10.5,32.1667 10.5,34.8333 10.5,37.5C 9.88258,37.6107 9.38258,37.944 9,38.5C 6.9692,35.6447 4.80254,32.978 2.5,30.5C 2.5,29.5 2.5,28.5 2.5,27.5C 3.88533,26.3862 5.38533,25.3862 7,24.5C 7.5,25 8,25.5 8.5,26C 4.57528,29.5836 5.24195,30.7503 10.5,29.5 Z"/></g>
<g><path style="opacity:1" fill="#fdbe4e" d="M 41.5,15.5 C 42.3227,18.977 42.8227,22.6437 43,26.5C 43.3333,26.1667 43.6667,25.8333 44,25.5C 45.6851,27.0175 47.1851,28.6841 48.5,30.5C 42.9958,34.3544 41.1625,39.6878 43,46.5C 44.7433,48.3211 46.2433,50.3211 47.5,52.5C 47.1667,53.5 46.5,54.1667 45.5,54.5C 44.6667,53.5 43.8333,52.5 43,51.5C 42.1747,55.2113 42.3414,58.878 43.5,62.5C 49.6767,61.0015 51.3434,63.0015 48.5,68.5C 50.4124,70.5415 50.579,72.5415 49,74.5C 46.5134,72.1911 44.5134,69.5244 43,66.5C 42.3333,73.1667 42.3333,79.8333 43,86.5C 45.7157,88.7043 46.2157,91.371 44.5,94.5C 44.5288,96.0293 45.1955,97.196 46.5,98C 45.4642,99.6169 44.2975,99.7836 43,98.5C 42.79,100.058 42.29,101.391 41.5,102.5C 41.5,102.167 41.5,101.833 41.5,101.5C 41.5,72.8333 41.5,44.1667 41.5,15.5 Z"/></g>
<g><path style="opacity:1" fill="#fdbc47" d="M 79.5,33.5 C 82.3172,32.1632 84.8172,32.8299 87,35.5C 87.4581,39.7266 86.9581,43.7266 85.5,47.5C 84.3067,43.4507 82.3067,39.784 79.5,36.5C 79.9767,35.5224 80.6433,34.6891 81.5,34C 80.9056,33.5357 80.2389,33.369 79.5,33.5 Z"/></g>
<g><path style="opacity:1" fill="#fdbd47" d="M 116.5,42.5 C 116.5,43.5 116.5,44.5 116.5,45.5C 115.185,46.4756 113.852,47.4756 112.5,48.5C 110.791,46.1244 108.791,44.1244 106.5,42.5C 106.5,40.5 106.5,38.5 106.5,36.5C 111.537,34.0349 112.204,34.8683 108.5,39C 109,39.5 109.5,40 110,40.5C 113.697,39.3567 114.197,40.1901 111.5,43C 113.273,44.802 114.94,44.6353 116.5,42.5 Z"/></g>
<g><path style="opacity:1" fill="#fba40e" d="M 38.5,2.5 C 39.1667,2.5 39.8333,2.5 40.5,2.5C 41.7952,5.62903 43.9619,7.96236 47,9.5C 50.9632,8.42855 52.4632,6.09521 51.5,2.5C 56.5,2.5 61.5,2.5 66.5,2.5C 66.6095,8.63487 69.6095,11.4682 75.5,11C 79.5139,7.81126 79.0139,5.31126 74,3.5C 70.9569,4.7414 71.1236,6.07474 74.5,7.5C 73.9984,8.52101 73.3317,8.68768 72.5,8C 70.84,6.51235 69.84,4.67901 69.5,2.5C 77.5,2.5 85.5,2.5 93.5,2.5C 92.645,3.53069 91.9783,4.69736 91.5,6C 92.9718,9.8014 95.4718,12.6347 99,14.5C 100.643,13.6854 102.143,12.6854 103.5,11.5C 105.048,11.1788 105.715,10.1788 105.5,8.5C 106.167,8.5 106.833,8.5 107.5,8.5C 107.281,9.67504 107.614,10.675 108.5,11.5C 109.649,9.07516 110.316,9.07516 110.5,11.5C 109.697,12.4232 109.53,13.4232 110,14.5C 112.031,17.3553 114.197,20.022 116.5,22.5C 116.5,29.1667 116.5,35.8333 116.5,42.5C 114.94,44.6353 113.273,44.802 111.5,43C 114.197,40.1901 113.697,39.3567 110,40.5C 109.5,40 109,39.5 108.5,39C 112.204,34.8683 111.537,34.0349 106.5,36.5C 105.654,25.9975 100.321,18.9975 90.5,15.5C 93.4911,12.4058 92.9911,11.4058 89,12.5C 87.5629,10.7788 88.0629,9.27879 90.5,8C 90,7.5 89.5,7 89,6.5C 86.8762,7.62173 85.0429,9.12173 83.5,11C 84.5,12 85.5,13 86.5,14C 83.3054,14.1805 80.3054,14.6805 77.5,15.5C 68.7995,17.0231 63.1328,22.0231 60.5,30.5C 57.7068,29.8612 55.3735,30.8612 53.5,33.5C 55.1712,36.4921 57.1712,39.1587 59.5,41.5C 59.5,42.5 59.5,43.5 59.5,44.5C 61.2646,45.4614 63.2646,45.7947 65.5,45.5C 64.5876,46.7382 64.4209,48.0715 65,49.5C 66.9773,52.3116 69.144,54.9783 71.5,57.5C 72.5,57.1667 73.1667,56.5 73.5,55.5C 71.1414,52.1486 68.8081,48.8153 66.5,45.5C 69.1667,45.5 71.8333,45.5 74.5,45.5C 76.002,47.175 77.3353,49.0083 78.5,51C 79.9653,51.6013 80.9653,51.1013 81.5,49.5C 80.6171,48.452 79.9504,47.2853 79.5,46C 81.2161,42.685 80.5495,40.185 77.5,38.5C 77.5,37.8333 77.5,37.1667 77.5,36.5C 77.427,34.9731 78.0937,33.9731 79.5,33.5C 80.2389,33.369 80.9056,33.5357 81.5,34C 80.6433,34.6891 79.9767,35.5224 79.5,36.5C 82.3067,39.784 84.3067,43.4507 85.5,47.5C 79.8122,57.5461 73.1455,66.8795 65.5,75.5C 64.3176,72.9908 62.3176,71.6574 59.5,71.5C 59.2965,73.3904 59.9632,74.8904 61.5,76C 60.5,78 59.5,78 58.5,76C 54.9049,74.9273 52.9049,76.2606 52.5,80C 53.3123,84.1442 55.6456,86.9775 59.5,88.5C 59.5,91.8333 59.5,95.1667 59.5,98.5C 58.5178,97.8592 57.5178,97.1925 56.5,96.5C 54.8987,97.0347 54.3987,98.0347 55,99.5C 57.2774,102.399 59.7774,105.066 62.5,107.5C 63.3081,107.192 63.9747,106.692 64.5,106C 63.1772,105.184 62.5106,104.017 62.5,102.5C 68.8333,102.5 75.1667,102.5 81.5,102.5C 83.4188,105.319 85.5855,107.986 88,110.5C 88.6924,109.975 89.1924,109.308 89.5,108.5C 88.4412,106.466 87.4412,104.466 86.5,102.5C 93.0221,102.823 99.3554,102.49 105.5,101.5C 105.5,97.8333 105.5,94.1667 105.5,90.5C 107.394,91.0476 109.06,92.0476 110.5,93.5C 112.264,91.7224 114.264,90.3891 116.5,89.5C 116.5,95.5 116.5,101.5 116.5,107.5C 114.734,105.229 112.734,103.063 110.5,101C 109.275,100.437 108.275,100.77 107.5,102C 109.788,104.743 111.955,107.577 114,110.5C 114.671,111.252 115.504,111.586 116.5,111.5C 116.5,113.167 116.5,114.833 116.5,116.5C 114.5,116.5 112.5,116.5 110.5,116.5C 111.29,115.206 112.29,114.039 113.5,113C 112.299,112.097 111.465,110.931 111,109.5C 106.016,108.635 105.516,109.802 109.5,113C 109,113.5 108.5,114 108,114.5C 106.257,112.679 104.757,110.679 103.5,108.5C 104.689,107.571 106.022,107.238 107.5,107.5C 107.5,106.5 107.5,105.5 107.5,104.5C 103.802,103.68 101.469,105.013 100.5,108.5C 101.366,111.692 103.032,114.359 105.5,116.5C 104.167,116.5 102.833,116.5 101.5,116.5C 101.539,115.244 101.039,114.244 100,113.5C 95.5661,114.338 95.3994,113.504 99.5,111C 98.9747,110.308 98.3081,109.808 97.5,109.5C 95.6115,110.604 93.9448,111.937 92.5,113.5C 93.1925,114.518 93.8592,115.518 94.5,116.5C 87.1667,116.5 79.8333,116.5 72.5,116.5C 73.6256,115.142 73.6256,113.808 72.5,112.5C 71.3914,113.59 70.3914,113.59 69.5,112.5C 70.1667,111.5 70.8333,110.5 71.5,109.5C 68.7582,108.5 66.7582,109.5 65.5,112.5C 66.1799,113.86 66.8466,115.193 67.5,116.5C 62.1667,116.5 56.8333,116.5 51.5,116.5C 51.2343,112.921 49.901,112.587 47.5,115.5C 46.3776,113.956 46.711,112.623 48.5,111.5C 47.4061,109.164 46.0728,109.164 44.5,111.5C 44.1667,111 43.8333,110.5 43.5,110C 44.1667,109 44.8333,108 45.5,107C 45.1667,106.5 44.8333,106 44.5,105.5C 42.6634,106.838 40.9967,108.338 39.5,110C 41.0427,112.042 42.3761,114.208 43.5,116.5C 42.8333,116.5 42.1667,116.5 41.5,116.5C 38.5,109.833 35.5,109.833 32.5,116.5C 29.1667,116.5 25.8333,116.5 22.5,116.5C 23.8001,115.173 25.1335,113.84 26.5,112.5C 24.5,112.167 22.5,111.833 20.5,111.5C 22.4613,110.152 22.6279,108.819 21,107.5C 17.0551,108.622 16.5551,107.622 19.5,104.5C 16.9142,103.79 14.9142,104.79 13.5,107.5C 15.7686,110.385 17.7686,113.385 19.5,116.5C 17.8333,116.5 16.1667,116.5 14.5,116.5C 15.975,113.116 14.975,110.782 11.5,109.5C 6.69085,110.503 5.69085,112.836 8.5,116.5C 6.5,116.5 4.5,116.5 2.5,116.5C 2.5,113.833 2.5,111.167 2.5,108.5C 8.51276,107.074 9.51276,104.241 5.5,100C 4.42317,99.5304 3.42317,99.6971 2.5,100.5C 2.5,93.5 2.5,86.5 2.5,79.5C 3.91083,80.9076 5.57749,81.9076 7.5,82.5C 9.60614,81.5705 11.6061,80.4038 13.5,79C 12.3204,77.1039 10.8204,75.6039 9,74.5C 7.72024,74.6135 6.88691,75.2801 6.5,76.5C 9.08334,77.4644 9.58334,78.7978 8,80.5C 6.25668,78.6789 4.75668,76.6789 3.5,74.5C 4.68884,73.5713 6.02218,73.238 7.5,73.5C 7.5,72.5 7.5,71.5 7.5,70.5C 5.83333,70.5 4.16667,70.5 2.5,70.5C 2.5,67.8333 2.5,65.1667 2.5,62.5C 5.50073,63.5099 7.83407,62.5099 9.5,59.5C 8.2243,58.3554 6.89097,58.3554 5.5,59.5C 4.26125,57.9928 4.59458,56.8261 6.5,56C 5.31814,54.2317 3.9848,54.0651 2.5,55.5C 2.5,47.1667 2.5,38.8333 2.5,30.5C 4.80254,32.978 6.9692,35.6447 9,38.5C 9.38258,37.944 9.88258,37.6107 10.5,37.5C 14.5,37.5 18.5,37.5 22.5,37.5C 22.5,44.5 22.5,51.5 22.5,58.5C 19.4007,58.0923 17.0674,59.259 15.5,62C 17.6976,65.0228 20.031,67.8562 22.5,70.5C 22.5,80.5 22.5,90.5 22.5,100.5C 21.4017,101.601 21.235,102.934 22,104.5C 25.0773,111.314 29.2439,112.147 34.5,107C 33.1175,105.729 32.1175,104.229 31.5,102.5C 34.8333,102.5 38.1667,102.5 41.5,102.5C 42.29,101.391 42.79,100.058 43,98.5C 44.2975,99.7836 45.4642,99.6169 46.5,98C 45.1955,97.196 44.5288,96.0293 44.5,94.5C 46.2157,91.371 45.7157,88.7043 43,86.5C 42.3333,79.8333 42.3333,73.1667 43,66.5C 44.5134,69.5244 46.5134,72.1911 49,74.5C 50.579,72.5415 50.4124,70.5415 48.5,68.5C 51.3434,63.0015 49.6767,61.0015 43.5,62.5C 42.3414,58.878 42.1747,55.2113 43,51.5C 43.8333,52.5 44.6667,53.5 45.5,54.5C 46.5,54.1667 47.1667,53.5 47.5,52.5C 46.2433,50.3211 44.7433,48.3211 43,46.5C 41.1625,39.6878 42.9958,34.3544 48.5,30.5C 47.1851,28.6841 45.6851,27.0175 44,25.5C 43.6667,25.8333 43.3333,26.1667 43,26.5C 42.8227,22.6437 42.3227,18.977 41.5,15.5C 42.4451,14.0072 43.4451,12.5072 44.5,11C 44.1667,10.5 43.8333,10 43.5,9.5C 42.5,10.1667 41.5,10.8333 40.5,11.5C 40.1667,11 39.8333,10.5 39.5,10C 42.0947,6.98987 41.428,6.15654 37.5,7.5C 37.1667,7 36.8333,6.5 36.5,6C 37.4295,4.9231 38.0962,3.75644 38.5,2.5 Z"/></g>
<g><path style="opacity:1" fill="#fdbc45" d="M 6.5,45.5 C 8.60395,45.2011 10.604,45.5344 12.5,46.5C 11.7112,48.4879 10.5445,48.8213 9,47.5C 8.96068,50.3317 10.1274,52.665 12.5,54.5C 12.8333,54.1667 13.1667,53.8333 13.5,53.5C 11.9604,52.4679 11.4604,51.1346 12,49.5C 13,48.1667 14,48.1667 15,49.5C 15.6355,50.9663 16.4688,52.2997 17.5,53.5C 14.0966,58.7857 10.5966,58.7857 7,53.5C 5.30369,50.8806 5.13702,48.214 6.5,45.5 Z"/></g>
<g><path style="opacity:1" fill="#fdbc43" d="M 65.5,45.5 C 65.8333,45.5 66.1667,45.5 66.5,45.5C 68.8081,48.8153 71.1414,52.1486 73.5,55.5C 73.1667,56.5 72.5,57.1667 71.5,57.5C 69.144,54.9783 66.9773,52.3116 65,49.5C 64.4209,48.0715 64.5876,46.7382 65.5,45.5 Z"/></g>
<g><path style="opacity:1" fill="#fdbb42" d="M 77.5,38.5 C 80.5495,40.185 81.2161,42.685 79.5,46C 79.9504,47.2853 80.6171,48.452 81.5,49.5C 80.9653,51.1013 79.9653,51.6013 78.5,51C 77.3353,49.0083 76.002,47.175 74.5,45.5C 75.5,45.5 76.5,45.5 77.5,45.5C 77.5,43.1667 77.5,40.8333 77.5,38.5 Z"/></g>
<g><path style="opacity:1" fill="#fee0ab" d="M 77.5,36.5 C 77.5,37.1667 77.5,37.8333 77.5,38.5C 77.5,40.8333 77.5,43.1667 77.5,45.5C 76.5,45.5 75.5,45.5 74.5,45.5C 71.8333,45.5 69.1667,45.5 66.5,45.5C 66.1667,45.5 65.8333,45.5 65.5,45.5C 63.2646,45.7947 61.2646,45.4614 59.5,44.5C 65.1667,44.5 70.8333,44.5 76.5,44.5C 76.1936,41.6146 76.5269,38.9479 77.5,36.5 Z"/></g>
<g><path style="opacity:1" fill="#fdbc43" d="M 13.5,40.5 C 16.45,42.6205 18.95,45.2872 21,48.5C 21.6987,50.0738 21.3654,51.4071 20,52.5C 17.6667,49.5 15.3333,46.5 13,43.5C 12.5304,42.4232 12.6971,41.4232 13.5,40.5 Z"/></g>
<g><path style="opacity:1" fill="#fdbb42" d="M 49.5,35.5 C 55.0226,36.3106 56.356,38.9772 53.5,43.5C 54.0402,44.7481 54.7069,45.9148 55.5,47C 54.9747,47.6924 54.3081,48.1924 53.5,48.5C 50.8154,45.8103 48.4821,42.8103 46.5,39.5C 47.5244,38.1482 48.5244,36.8149 49.5,35.5 Z"/></g>
<g><path style="opacity:1" fill="#fdbb43" d="M 60.5,30.5 C 59.7564,34.1185 59.423,37.7852 59.5,41.5C 57.1712,39.1587 55.1712,36.4921 53.5,33.5C 55.3735,30.8612 57.7068,29.8612 60.5,30.5 Z"/></g>
<g><path style="opacity:1" fill="#fdbc44" d="M 44.5,17.5 C 47.1356,20.3098 49.6356,23.3098 52,26.5C 52.6013,27.9653 52.1013,28.9653 50.5,29.5C 48.144,26.9783 45.9773,24.3116 44,21.5C 43.4209,20.0715 43.5876,18.7382 44.5,17.5 Z"/></g>
<g><path style="opacity:1" fill="#fdbc44" d="M 105.5,15.5 C 111.107,16.0464 112.44,18.713 109.5,23.5C 111.957,25.3324 111.957,26.9991 109.5,28.5C 106.795,25.5828 104.462,22.4161 102.5,19C 103.544,17.8261 104.544,16.6594 105.5,15.5 Z"/></g>
<g><path style="opacity:1" fill="#fdbb42" d="M 53.5,10.5 C 59.4877,10.664 60.821,13.164 57.5,18C 58.6872,19.0195 59.6872,20.1861 60.5,21.5C 60.1667,22.5 59.5,23.1667 58.5,23.5C 55.4838,20.4797 52.8171,17.1464 50.5,13.5C 51.7701,12.7124 52.7701,11.7124 53.5,10.5 Z"/></g>
<g><path style="opacity:1" fill="#fdc051" d="M 90.5,15.5 C 86.1667,15.5 81.8333,15.5 77.5,15.5C 80.3054,14.6805 83.3054,14.1805 86.5,14C 85.5,13 84.5,12 83.5,11C 85.0429,9.12173 86.8762,7.62173 89,6.5C 89.5,7 90,7.5 90.5,8C 88.0629,9.27879 87.5629,10.7788 89,12.5C 92.9911,11.4058 93.4911,12.4058 90.5,15.5 Z"/></g>
<g><path style="opacity:1" fill="#fdbc44" d="M 61.5,4.5 C 65.0794,4.76568 65.4127,6.09902 62.5,8.5C 63.3914,9.58957 64.3914,9.58957 65.5,8.5C 66.6446,9.7757 66.6446,11.109 65.5,12.5C 70.9131,11.7564 71.5798,13.2564 67.5,17C 66.5,17.6667 65.5,17.6667 64.5,17C 62.1312,14.4298 60.1312,11.5964 58.5,8.5C 59.5244,7.14819 60.5244,5.81486 61.5,4.5 Z"/></g>
<g><path style="opacity:1" fill="#fdbc45" d="M 66.5,2.5 C 67.5,2.5 68.5,2.5 69.5,2.5C 69.84,4.67901 70.84,6.51235 72.5,8C 73.3317,8.68768 73.9984,8.52101 74.5,7.5C 71.1236,6.07474 70.9569,4.7414 74,3.5C 79.0139,5.31126 79.5139,7.81126 75.5,11C 69.6095,11.4682 66.6095,8.63487 66.5,2.5 Z"/></g>
<g><path style="opacity:1" fill="#fdbb42" d="M 40.5,2.5 C 44.1667,2.5 47.8333,2.5 51.5,2.5C 52.4632,6.09521 50.9632,8.42855 47,9.5C 43.9619,7.96236 41.7952,5.62903 40.5,2.5 Z"/></g>
<g><path style="opacity:1" fill="#fdbc44" d="M 59.5,49.5 C 65.9257,51.0841 65.9257,52.5841 59.5,54C 60.4533,55.9552 61.7866,57.6218 63.5,59C 64.3317,59.6877 64.9984,59.521 65.5,58.5C 61.8636,57.0637 61.697,55.397 65,53.5C 70.8473,58.7205 69.6806,61.5538 61.5,62C 56.4395,58.1973 55.7728,54.0307 59.5,49.5 Z"/></g>
<g><path style="opacity:1" fill="#fdbc45" d="M 53.5,54.5 C 54.7122,56.2637 54.3788,57.9303 52.5,59.5C 54.216,59.9972 55.8827,60.3306 57.5,60.5C 57.0233,61.4776 56.3567,62.3109 55.5,63C 55.8333,63.3333 56.1667,63.6667 56.5,64C 62.8927,63.8945 62.8927,65.3945 56.5,68.5C 53.4871,65.6513 50.8204,62.4847 48.5,59C 50.2395,57.483 51.9062,55.983 53.5,54.5 Z"/></g>
<g><path style="opacity:1" fill="#fdbd45" d="M 2.5,62.5 C 2.5,60.1667 2.5,57.8333 2.5,55.5C 3.9848,54.0651 5.31814,54.2317 6.5,56C 4.59458,56.8261 4.26125,57.9928 5.5,59.5C 6.89097,58.3554 8.2243,58.3554 9.5,59.5C 7.83407,62.5099 5.50073,63.5099 2.5,62.5 Z"/></g>
<g><path style="opacity:1" fill="#fdbb42" d="M 22.5,58.5 C 22.5,62.5 22.5,66.5 22.5,70.5C 20.031,67.8562 17.6976,65.0228 15.5,62C 17.0674,59.259 19.4007,58.0923 22.5,58.5 Z"/></g>
<g><path style="opacity:1" fill="#fdbb44" d="M 97.5,64.5 C 99.7134,65.8655 101.38,67.8655 102.5,70.5C 101.617,71.548 100.95,72.7147 100.5,74C 101.615,75.3932 102.115,76.8932 102,78.5C 101.586,78.9574 101.086,79.2907 100.5,79.5C 98.31,77.1443 96.31,74.6443 94.5,72C 93.552,71.5172 92.552,71.3505 91.5,71.5C 93.5293,69.1415 95.5293,66.8082 97.5,64.5 Z"/></g>
<g><path style="opacity:1" fill="#fdbc44" d="M 8.5,66.5 C 12.4569,68.4568 15.4569,71.4568 17.5,75.5C 16.1117,78.0789 14.6117,78.0789 13,75.5C 11.1667,73 9.33333,70.5 7.5,68C 8.05596,67.6174 8.38929,67.1174 8.5,66.5 Z"/></g>
<g><path style="opacity:1" fill="#fca614" d="M 106.5,42.5 C 108.791,44.1244 110.791,46.1244 112.5,48.5C 113.852,47.4756 115.185,46.4756 116.5,45.5C 116.5,59.8333 116.5,74.1667 116.5,88.5C 115.163,87.6851 114.163,86.5185 113.5,85C 108.804,85.0709 108.47,86.4042 112.5,89C 112,89.5 111.5,90 111,90.5C 109.257,88.6789 107.757,86.6789 106.5,84.5C 107.689,83.5713 109.022,83.238 110.5,83.5C 110.5,82.5 110.5,81.5 110.5,80.5C 106.778,79.6799 104.445,81.0132 103.5,84.5C 100.5,84.5 97.5,84.5 94.5,84.5C 92.8333,81.1667 91.1667,77.8333 89.5,74.5C 89.427,72.9731 90.0937,71.9731 91.5,71.5C 92.552,71.3505 93.552,71.5172 94.5,72C 96.31,74.6443 98.31,77.1443 100.5,79.5C 101.086,79.2907 101.586,78.9574 102,78.5C 102.115,76.8932 101.615,75.3932 100.5,74C 100.95,72.7147 101.617,71.548 102.5,70.5C 101.38,67.8655 99.7134,65.8655 97.5,64.5C 102.446,58.0037 105.446,50.6704 106.5,42.5 Z"/></g>
<g><path style="opacity:1" fill="#fdbc44" d="M 103.5,60.5 C 107.079,60.7657 107.413,62.099 104.5,64.5C 105.391,65.5896 106.391,65.5896 107.5,64.5C 109.836,65.5939 109.836,66.9272 107.5,68.5C 113.98,68.7289 113.98,70.3956 107.5,73.5C 104.815,70.8103 102.482,67.8103 100.5,64.5C 101.524,63.1482 102.524,61.8149 103.5,60.5 Z"/></g>
<g><path style="opacity:1" fill="#fdbd46" d="M 2.5,70.5 C 4.16667,70.5 5.83333,70.5 7.5,70.5C 7.5,71.5 7.5,72.5 7.5,73.5C 6.02218,73.238 4.68884,73.5713 3.5,74.5C 4.75668,76.6789 6.25668,78.6789 8,80.5C 9.58334,78.7978 9.08334,77.4644 6.5,76.5C 6.88691,75.2801 7.72024,74.6135 9,74.5C 10.8204,75.6039 12.3204,77.1039 13.5,79C 11.6061,80.4038 9.60614,81.5705 7.5,82.5C 5.57749,81.9076 3.91083,80.9076 2.5,79.5C 2.5,76.5 2.5,73.5 2.5,70.5 Z"/></g>
<g><path style="opacity:1" fill="#fdb436" d="M 65.5,75.5 C 63.8067,78.1841 62.14,80.8508 60.5,83.5C 59.5489,84.9187 59.2155,86.5853 59.5,88.5C 55.6456,86.9775 53.3123,84.1442 52.5,80C 52.9049,76.2606 54.9049,74.9273 58.5,76C 59.5,78 60.5,78 61.5,76C 59.9632,74.8904 59.2965,73.3904 59.5,71.5C 62.3176,71.6574 64.3176,72.9908 65.5,75.5 Z"/></g>
<g><path style="opacity:1" fill="#fdbc44" d="M 47.5,80.5 C 51.0794,80.7657 51.4127,82.099 48.5,84.5C 49.3914,85.5896 50.3914,85.5896 51.5,84.5C 52.6446,85.7757 52.6446,87.109 51.5,88.5C 56.9131,87.7564 57.5798,89.2564 53.5,93C 52.5,93.6667 51.5,93.6667 50.5,93C 47.6496,90.2135 45.8163,87.0468 45,83.5C 46.045,82.6266 46.8783,81.6266 47.5,80.5 Z"/></g>
<g><path style="opacity:1" fill="#fed793" d="M 22.5,37.5 C 23.4973,58.6601 23.8306,79.9935 23.5,101.5C 29.5,101.5 35.5,101.5 41.5,101.5C 41.5,101.833 41.5,102.167 41.5,102.5C 38.1667,102.5 34.8333,102.5 31.5,102.5C 27.9878,103.055 24.9878,102.388 22.5,100.5C 22.5,90.5 22.5,80.5 22.5,70.5C 22.5,66.5 22.5,62.5 22.5,58.5C 22.5,51.5 22.5,44.5 22.5,37.5 Z"/></g>
<g><path style="opacity:1" fill="#fdb53a" d="M 89.5,74.5 C 91.1667,77.8333 92.8333,81.1667 94.5,84.5C 89.8215,84.6658 85.1548,84.4992 80.5,84C 83.0012,80.3329 86.0012,77.1662 89.5,74.5 Z"/></g>
<g><path style="opacity:1" fill="#fdbb42" d="M 13.5,84.5 C 19.3302,83.9998 20.9969,86.4998 18.5,92C 18.9504,93.2853 19.6171,94.452 20.5,95.5C 20,95.8333 19.5,96.1667 19,96.5C 16.0125,94.8459 13.6792,92.5125 12,89.5C 11.3872,87.5048 11.8872,85.8381 13.5,84.5 Z"/></g>
<g><path style="opacity:1" fill="#fdbd47" d="M 116.5,88.5 C 116.5,88.8333 116.5,89.1667 116.5,89.5C 114.264,90.3891 112.264,91.7224 110.5,93.5C 109.06,92.0476 107.394,91.0476 105.5,90.5C 105.975,87.9179 105.308,85.9179 103.5,84.5C 104.445,81.0132 106.778,79.6799 110.5,80.5C 110.5,81.5 110.5,82.5 110.5,83.5C 109.022,83.238 107.689,83.5713 106.5,84.5C 107.757,86.6789 109.257,88.6789 111,90.5C 111.5,90 112,89.5 112.5,89C 108.47,86.4042 108.804,85.0709 113.5,85C 114.163,86.5185 115.163,87.6851 116.5,88.5 Z"/></g>
<g><path style="opacity:1" fill="#fdbc45" d="M 4.5,91.5 C 8.40269,94.3201 11.0694,97.9867 12.5,102.5C 11.448,102.649 10.448,102.483 9.5,102C 7.30561,99.3053 5.30561,96.472 3.5,93.5C 3.86273,92.8165 4.19607,92.1499 4.5,91.5 Z"/></g>
<g><path style="opacity:1" fill="#fdbb41" d="M 2.5,108.5 C 2.5,105.833 2.5,103.167 2.5,100.5C 3.42317,99.6971 4.42317,99.5304 5.5,100C 9.51276,104.241 8.51276,107.074 2.5,108.5 Z"/></g>
<g><path style="opacity:1" fill="#fdbd45" d="M 116.5,107.5 C 116.5,108.833 116.5,110.167 116.5,111.5C 115.504,111.586 114.671,111.252 114,110.5C 111.955,107.577 109.788,104.743 107.5,102C 108.275,100.77 109.275,100.437 110.5,101C 112.734,103.063 114.734,105.229 116.5,107.5 Z"/></g>
<g><path style="opacity:1" fill="#fee5b9" d="M 60.5,83.5 C 60.5,89.5 60.5,95.5 60.5,101.5C 75.5,101.5 90.5,101.5 105.5,101.5C 99.3554,102.49 93.0221,102.823 86.5,102.5C 84.8333,102.5 83.1667,102.5 81.5,102.5C 75.1667,102.5 68.8333,102.5 62.5,102.5C 61.5,102.5 60.5,102.5 59.5,102.5C 59.5,101.167 59.5,99.8333 59.5,98.5C 59.5,95.1667 59.5,91.8333 59.5,88.5C 59.2155,86.5853 59.5489,84.9187 60.5,83.5 Z"/></g>
<g><path style="opacity:1" fill="#fdb93f" d="M 22.5,100.5 C 24.9878,102.388 27.9878,103.055 31.5,102.5C 32.1175,104.229 33.1175,105.729 34.5,107C 29.2439,112.147 25.0773,111.314 22,104.5C 21.235,102.934 21.4017,101.601 22.5,100.5 Z"/></g>
<g><path style="opacity:1" fill="#fdbc44" d="M 49.5,100.5 C 51.1439,100.286 52.6439,100.62 54,101.5C 54.3333,104.167 53.3333,104.833 51,103.5C 50.9099,106.462 52.2432,108.796 55,110.5C 55.5396,108.865 55.0396,107.532 53.5,106.5C 53.7093,105.914 54.0426,105.414 54.5,105C 60.0295,106.269 60.6962,108.935 56.5,113C 52.4539,113.324 49.6206,111.491 48,107.5C 47.1668,104.829 47.6668,102.496 49.5,100.5 Z"/></g>
<g><path style="opacity:1" fill="#fdbc45" d="M 59.5,98.5 C 59.5,99.8333 59.5,101.167 59.5,102.5C 60.5,102.5 61.5,102.5 62.5,102.5C 62.5106,104.017 63.1772,105.184 64.5,106C 63.9747,106.692 63.3081,107.192 62.5,107.5C 59.7774,105.066 57.2774,102.399 55,99.5C 54.3987,98.0347 54.8987,97.0347 56.5,96.5C 57.5178,97.1925 58.5178,97.8592 59.5,98.5 Z"/></g>
<g><path style="opacity:1" fill="#fdbc45" d="M 81.5,102.5 C 83.1667,102.5 84.8333,102.5 86.5,102.5C 87.4412,104.466 88.4412,106.466 89.5,108.5C 89.1924,109.308 88.6924,109.975 88,110.5C 85.5855,107.986 83.4188,105.319 81.5,102.5 Z"/></g>
<g><path style="opacity:1" fill="#fdbc45" d="M 22.5,116.5 C 21.5,116.5 20.5,116.5 19.5,116.5C 17.7686,113.385 15.7686,110.385 13.5,107.5C 14.9142,104.79 16.9142,103.79 19.5,104.5C 16.5551,107.622 17.0551,108.622 21,107.5C 22.6279,108.819 22.4613,110.152 20.5,111.5C 22.5,111.833 24.5,112.167 26.5,112.5C 25.1335,113.84 23.8001,115.173 22.5,116.5 Z"/></g>
<g><path style="opacity:1" fill="#fdbc44" d="M 110.5,116.5 C 108.833,116.5 107.167,116.5 105.5,116.5C 103.032,114.359 101.366,111.692 100.5,108.5C 101.469,105.013 103.802,103.68 107.5,104.5C 107.5,105.5 107.5,106.5 107.5,107.5C 106.022,107.238 104.689,107.571 103.5,108.5C 104.757,110.679 106.257,112.679 108,114.5C 108.5,114 109,113.5 109.5,113C 105.516,109.802 106.016,108.635 111,109.5C 111.465,110.931 112.299,112.097 113.5,113C 112.29,114.039 111.29,115.206 110.5,116.5 Z"/></g>
<g><path style="opacity:1" fill="#fdbc44" d="M 51.5,116.5 C 48.8333,116.5 46.1667,116.5 43.5,116.5C 42.3761,114.208 41.0427,112.042 39.5,110C 40.9967,108.338 42.6634,106.838 44.5,105.5C 44.8333,106 45.1667,106.5 45.5,107C 44.8333,108 44.1667,109 43.5,110C 43.8333,110.5 44.1667,111 44.5,111.5C 46.0728,109.164 47.4061,109.164 48.5,111.5C 46.711,112.623 46.3776,113.956 47.5,115.5C 49.901,112.587 51.2343,112.921 51.5,116.5 Z"/></g>
<g><path style="opacity:1" fill="#fdbc44" d="M 75.5,103.5 C 81.5056,103.809 81.8389,105.142 76.5,107.5C 77.1279,109.258 78.1279,110.758 79.5,112C 80.3317,112.688 80.9984,112.521 81.5,111.5C 78.8729,109.751 78.8729,108.084 81.5,106.5C 82.4803,107.981 83.647,109.315 85,110.5C 84.3807,114.746 81.8807,116.246 77.5,115C 73.2608,111.652 72.5941,107.819 75.5,103.5 Z"/></g>
<g><path style="opacity:1" fill="#fdba41" d="M 14.5,116.5 C 12.5,116.5 10.5,116.5 8.5,116.5C 5.69085,112.836 6.69085,110.503 11.5,109.5C 14.975,110.782 15.975,113.116 14.5,116.5 Z"/></g>
<g><path style="opacity:1" fill="#fdbc44" d="M 72.5,116.5 C 70.8333,116.5 69.1667,116.5 67.5,116.5C 66.8466,115.193 66.1799,113.86 65.5,112.5C 66.7582,109.5 68.7582,108.5 71.5,109.5C 70.8333,110.5 70.1667,111.5 69.5,112.5C 70.3914,113.59 71.3914,113.59 72.5,112.5C 73.6256,113.808 73.6256,115.142 72.5,116.5 Z"/></g>
<g><path style="opacity:1" fill="#fdbc44" d="M 101.5,116.5 C 99.1667,116.5 96.8333,116.5 94.5,116.5C 93.8592,115.518 93.1925,114.518 92.5,113.5C 93.9448,111.937 95.6115,110.604 97.5,109.5C 98.3081,109.808 98.9747,110.308 99.5,111C 95.3994,113.504 95.5661,114.338 100,113.5C 101.039,114.244 101.539,115.244 101.5,116.5 Z"/></g>
<g><path style="opacity:1" fill="#fdba40" d="M 41.5,116.5 C 38.5,116.5 35.5,116.5 32.5,116.5C 35.5,109.833 38.5,109.833 41.5,116.5 Z"/></g>
<g><path style="opacity:1" fill="#b9b9b9" d="M 78.5,121.5 C 80.337,121.639 80.6704,122.306 79.5,123.5C 78.7025,123.043 78.3691,122.376 78.5,121.5 Z"/></g>
<g><path style="opacity:1" fill="#a9a9a9" d="M 87.5,121.5 C 89.337,121.639 89.6704,122.306 88.5,123.5C 87.7025,123.043 87.3691,122.376 87.5,121.5 Z"/></g>
<g><path style="opacity:1" fill="#e5e5e5" d="M 105.5,126.5 C 103.598,129.337 102.931,132.671 103.5,136.5C 103.07,132.86 102.07,129.36 100.5,126C 102.107,124.951 102.773,123.451 102.5,121.5C 103.675,121.281 104.675,121.614 105.5,122.5C 104.193,123.865 104.193,125.198 105.5,126.5 Z"/></g>
<g><path style="opacity:1" fill="#6c6c6c" d="M 50.5,125.5 C 50.3342,130.179 50.5008,134.845 51,139.5C 51.2321,138.263 51.7321,137.263 52.5,136.5C 52.5,137.833 52.5,139.167 52.5,140.5C 51.5,140.5 50.5,140.5 49.5,140.5C 49.1795,135.305 49.5128,130.305 50.5,125.5 Z"/></g>
<g><path style="opacity:1" fill="#cacaca" d="M 78.5,125.5 C 79.7868,126.871 80.4535,128.705 80.5,131C 80.1667,132.833 79.8333,134.667 79.5,136.5C 78.5108,132.893 78.1774,129.226 78.5,125.5 Z"/></g>
<g><path style="opacity:1" fill="#d1d1d1" d="M 87.5,125.5 C 88.7868,126.871 89.4535,128.705 89.5,131C 89.1667,132.833 88.8333,134.667 88.5,136.5C 87.5108,132.893 87.1774,129.226 87.5,125.5 Z"/></g>
<g><path style="opacity:1" fill="#c9c9c9" d="M 69.5,125.5 C 71.8333,125.5 74.1667,125.5 76.5,125.5C 76.6657,129.846 76.499,134.179 76,138.5C 73.7435,141.119 71.5768,141.119 69.5,138.5C 70.8875,138.193 72.5542,138.193 74.5,138.5C 74.9111,135.724 74.0777,135.057 72,136.5C 70.7387,136.241 69.7387,135.574 69,134.5C 68.2642,131.408 68.4309,128.408 69.5,125.5 Z"/></g>
<g><path style="opacity:1" fill="#151515" d="M 71.5,126.5 C 73.8896,126.685 74.8896,128.018 74.5,130.5C 74.8213,133.512 73.488,134.845 70.5,134.5C 70.2786,131.721 70.612,129.054 71.5,126.5 Z"/></g>
<g><path style="opacity:1" fill="#cacaca" d="M 91.5,125.5 C 94.1194,125.232 96.6194,125.565 99,126.5C 99.8236,129.882 99.657,133.216 98.5,136.5C 97.513,133.232 97.1796,129.898 97.5,126.5C 96.1779,126.33 95.0113,126.663 94,127.5C 93.8214,130.553 93.3214,133.553 92.5,136.5C 91.5108,132.893 91.1774,129.226 91.5,125.5 Z"/></g>
<g><path style="opacity:1" fill="#5e5e5e" d="M 105.5,126.5 C 104.903,129.941 104.237,133.275 103.5,136.5C 102.931,132.671 103.598,129.337 105.5,126.5 Z"/></g>
<g><path style="opacity:1" fill="#dbdbdb" d="M 20.5,129.5 C 20.7373,130.791 20.404,131.791 19.5,132.5C 19.3796,130.801 19.0463,129.135 18.5,127.5C 18.8333,126.833 19.1667,126.167 19.5,125.5C 20.4287,126.689 20.762,128.022 20.5,129.5 Z"/></g>
<g><path style="opacity:1" fill="#959595" d="M 64.5,127.5 C 65.2679,128.263 65.7679,129.263 66,130.5C 66.4828,129.552 66.6495,128.552 66.5,127.5C 67.4345,128.568 67.7678,129.901 67.5,131.5C 65.5,131.5 63.5,131.5 61.5,131.5C 61.5,130.833 61.5,130.167 61.5,129.5C 63.1788,129.715 64.1788,129.048 64.5,127.5 Z"/></g>
<g><path style="opacity:1" fill="#dbdbdb" d="M 50.5,125.5 C 52.7925,125.244 54.9592,125.577 57,126.5C 57.6667,129.5 57.6667,132.5 57,135.5C 55.6439,136.38 54.1439,136.714 52.5,136.5C 51.7321,137.263 51.2321,138.263 51,139.5C 50.5008,134.845 50.3342,130.179 50.5,125.5 Z"/></g>
<g><path style="opacity:1" fill="#1a1a1a" d="M 52.5,126.5 C 53.5,126.5 54.5,126.5 55.5,126.5C 55.5,129.167 55.5,131.833 55.5,134.5C 54.1779,134.67 53.0113,134.337 52,133.5C 51.2967,131.071 51.4634,128.738 52.5,126.5 Z"/></g>
<g><path style="opacity:1" fill="#bdbdbd" d="M 4.5,125.5 C 6.48032,126.848 7.64698,128.848 8,131.5C 8.81299,129.564 9.31299,127.564 9.5,125.5C 10.675,125.281 11.675,125.614 12.5,126.5C 13.1892,128.444 13.6892,130.444 14,132.5C 14.3763,129.99 15.2096,127.657 16.5,125.5C 16.8333,125.833 17.1667,126.167 17.5,126.5C 16.6182,129.791 15.9516,133.124 15.5,136.5C 14.5,136.5 13.5,136.5 12.5,136.5C 11.5,125.833 10.5,125.833 9.5,136.5C 8.5,136.5 7.5,136.5 6.5,136.5C 6.30889,132.738 5.64222,129.071 4.5,125.5 Z"/></g>
<g><path style="opacity:1" fill="#b6b6b6" d="M 19.5,132.5 C 20.404,131.791 20.7373,130.791 20.5,129.5C 21.1174,129.611 21.6174,129.944 22,130.5C 21.734,127.099 23.234,125.433 26.5,125.5C 26.5235,131.858 27.5235,131.858 29.5,125.5C 30.2402,128.845 29.9069,132.178 28.5,135.5C 27.8333,136.833 27.1667,136.833 26.5,135.5C 25.9851,133.775 25.3184,132.108 24.5,130.5C 23.9882,132.851 22.9882,134.851 21.5,136.5C 20.2949,135.423 19.6282,134.09 19.5,132.5 Z"/></g>
<g><path style="opacity:1" fill="#c1c1c1" d="M 31.5,125.5 C 32.4972,125.47 33.1639,125.97 33.5,127C 34.0779,128.811 34.5779,130.645 35,132.5C 35.662,130.187 36.162,127.854 36.5,125.5C 37.5,125.5 38.5,125.5 39.5,125.5C 39.687,127.564 40.187,129.564 41,131.5C 41.5431,129.369 42.3764,127.369 43.5,125.5C 43.8333,125.833 44.1667,126.167 44.5,126.5C 43.4486,129.757 42.7819,133.09 42.5,136.5C 41.5,136.5 40.5,136.5 39.5,136.5C 38.5,125.833 37.5,125.833 36.5,136.5C 35.5,136.5 34.5,136.5 33.5,136.5C 32.9401,132.807 32.2735,129.14 31.5,125.5 Z"/></g>
<g><path style="opacity:1" fill="#d0d0d0" d="M 107.5,125.5 C 113.996,125.12 116.162,128.12 114,134.5C 111.602,137.054 109.269,137.054 107,134.5C 106.366,131.445 106.532,128.445 107.5,125.5 Z"/></g>
<g><path style="opacity:1" fill="#151515" d="M 109.5,126.5 C 111.95,126.874 112.95,128.374 112.5,131C 112.691,132.973 112.024,134.473 110.5,135.5C 108.215,132.822 107.882,129.822 109.5,126.5 Z"/></g>
<g><path style="opacity:1" fill="#cecece" d="M 66.5,127.5 C 66.6495,128.552 66.4828,129.552 66,130.5C 65.7679,129.263 65.2679,128.263 64.5,127.5C 62.6682,126.282 61.6682,126.949 61.5,129.5C 61.5,130.167 61.5,130.833 61.5,131.5C 62.084,136.212 63.584,136.545 66,132.5C 66.6838,133.784 66.5171,134.951 65.5,136C 63.5594,136.743 61.7261,136.576 60,135.5C 59.3333,132.5 59.3333,129.5 60,126.5C 62.5515,124.98 64.7182,125.313 66.5,127.5 Z"/></g>
<g><path style="opacity:1" fill="#131313" d="M 64.5,127.5 C 64.1788,129.048 63.1788,129.715 61.5,129.5C 61.6682,126.949 62.6682,126.282 64.5,127.5 Z"/></g>
<g><path style="opacity:1" fill="#c4c4c4" d="M 45.5,134.5 C 47.337,134.639 47.6704,135.306 46.5,136.5C 45.7025,136.043 45.3691,135.376 45.5,134.5 Z"/></g>
<g><path style="opacity:1" fill="#a0a0a0" d="M 83.5,134.5 C 85.337,134.639 85.6704,135.306 84.5,136.5C 83.7025,136.043 83.3691,135.376 83.5,134.5 Z"/></g>
</svg>
